{"asset":{"version":"2.0","generator":"babylon.js glTF exporter for 3dsmax 2019 v20200615.2"},"scene":0,"scenes":[{"nodes":[0,1]}],"nodes":[{"mesh":0,"rotation":[8.742278e-8,-8.742278e-8,7.642742e-15,1],"name":"logo"},{"name":"Default light"}],"meshes":[{"primitives":[{"attributes":{"POSITION":1,"NORMAL":2,"TEXCOORD_0":3},"indices":0,"material":0}],"name":"logo"}],"accessors":[{"bufferView":0,"componentType":5123,"count":1302,"type":"SCALAR","name":"accessorIndices"},{"bufferView":1,"componentType":5126,"count":1302,"max":[3.744557,1.1448822,3.8894453],"min":[-3.755205,-3.091525,-3.86720324],"type":"VEC3","name":"accessorPositions"},{"bufferView":1,"byteOffset":15624,"componentType":5126,"count":1302,"type":"VEC3","name":"accessorNormals"},{"bufferView":2,"componentType":5126,"count":1302,"type":"VEC2","name":"accessorUVs"},{"bufferView":3,"componentType":5126,"count":229,"max":[46.6666679],"min":[0],"type":"SCALAR","name":"accessorAnimationInput"},{"bufferView":4,"componentType":5126,"count":229,"type":"VEC4","name":"accessorAnimationRotations"}],"bufferViews":[{"buffer":0,"byteLength":2604,"name":"bufferViewScalar"},{"buffer":0,"byteOffset":2604,"byteLength":31248,"byteStride":12,"name":"bufferViewFloatVec3"},{"buffer":0,"byteOffset":33852,"byteLength":10416,"byteStride":8,"name":"bufferViewFloatVec2"},{"buffer":0,"byteOffset":44268,"byteLength":916,"name":"bufferViewAnimationFloatScalar"},{"buffer":0,"byteOffset":45184,"byteLength":3664,"name":"bufferViewAnimationFloatVec4"}],"buffers":[{"uri":"data:application/octet-stream;base64,","byteLength":48848}],"materials":[{"pbrMetallicRoughness":{"baseColorTexture":{"index":0},"metallicFactor":0,"roughnessFactor":0.450053632},"name":"08 - Default"}],"textures":[{"sampler":0,"source":0,"name":"concrete.jpg"}],"images":[{"uri":"data:application/octet-stream;base64,"}],"samplers":[{"magFilter":9729,"minFilter":9987}],"animations":[{"channels":[{"sampler":0,"target":{"node":0,"path":"rotation"}}],"samplers":[{"input":4,"output":5}],"name":"All Animations"}]}